<?xml version="1.0" encoding="utf-8"?>
<!-- Generator: Adobe Illustrator 24.1.2, SVG Export Plug-In . SVG Version: 6.00 Build 0)  -->
<svg version="1.1" id="Layer_1" xmlns="http://www.w3.org/2000/svg" xmlns:xlink="http://www.w3.org/1999/xlink" x="0px" y="0px"
	 viewBox="0 0 200 200" style="enable-background:new 0 0 200 200;" xml:space="preserve">
<style type="text/css">
	.st0{fill:#808285;}
</style>
<g>
	<path class="st0" d="M72.5,97.4c-2.9,0-5.8,0-8.7,0v19.2h27.5l-27.5,18.3v23.3l37.1-24.9l35.3,22.2v-22.1l-27-16.8h27V97.4
		c-2.9,0-5.8,0-8.7,0C109.2,97.4,90.8,97.4,72.5,97.4z"/>
	<path d="M136.2,65.4l0-23.6H63.8v23.6c0,11.7,3.1,21.2,8.7,28l27.9,28.7l27-28.7C133.1,86.6,136.3,77.1,136.2,65.4z M100,85.8
		c-11.2,0-18.1-7.9-18.1-20.7v-4.6h36.3v4.4C118.2,77.9,111.3,85.8,100,85.8z"/>
</g>
</svg>
